<svg xmlns="http://www.w3.org/2000/svg" x="0px" y="0px" viewBox="0 0 864 864" enable-background="new 0 0 864 864"><style>.ls0{fill:#fff}.fs0{fill:#000}</style><g class="fs0"><path d="M647.6,647.6C590,705.1,513.4,736.8,432,736.8s-158-31.7-215.6-89.3C158.9,590,127.2,513.4,127.2,432s31.7-158,89.3-215.6	s134.1-89.3,215.6-89.3s158,31.7,215.6,89.3C705.3,274,737,350.5,737,432S705.1,590,647.6,647.6z"/></g><g transform="translate(5.3824120603 5.2324120603) scale(.98777)"><path class="ls0" d="M420.5,134.8V254h-54v-56.5c-39.9,11.1-76.5,32.3-106.6,62.4c-39.5,39.5-63.8,90.3-69.8,145.1	c-1,8.9-1.5,17.9-1.5,27c0,9.1,0.5,18.1,1.5,27c5.2,47.6,24.2,92.1,55,128.9c4.7,5.6,9.6,11,14.8,16.2	c30.1,30.1,66.7,51.3,106.6,62.4V459h-58.9v-54h112.9v324.2c-18.5-0.7-36.5-3.1-54-7c-64.9-14.6-121.7-50.3-162.9-99.7	C166,577.4,141.4,520.9,135.8,459c-0.8-8.9-1.2-17.9-1.2-27c0-9.1,0.4-18.1,1.2-27c11.7-129.6,106.5-235.2,230.7-263.1	C384,137.9,402,135.5,420.5,134.8z"/><g><path class="ls0" d="M729.4,432c0-55.8-15.3-107.9-42-152.5c-9.3-15.6-20-30.2-31.9-43.7L614,270.4l-24.5,20.5L543,215.3 l-45.1-73.3c-0.1,0-0.2-0.1-0.4-0.1c-17.5-3.9-35.5-6.3-54-7v594.3c18.5-0.7,36.5-3.1,54-7V244.4l50.1,81.4l28.6,46.5l41.9-34.9 l27.2-22.7c19.7,35.6,30.1,75.7,30.1,117.4c0,57.7-19.9,112.2-56.5,155.9l41.5,34.6C703.5,570.9,729.4,504.5,729.4,432z"/></g></g></svg>